<svg width="71" height="40" viewBox="0 0 71 40" fill="none" xmlns="http://www.w3.org/2000/svg">
<path d="M32 0H8C3.58172 0 0 3.58172 0 8V32C0 36.4183 3.58172 40 8 40H32C36.4183 40 40 36.4183 40 32V8C40 3.58172 36.4183 0 32 0Z" fill="#22C55E"/>
<path d="M13.9297 12.9004C15.0569 12.9004 16.0726 13.0879 16.9746 13.4658L17.3105 13.6152C18.0781 13.9831 18.7346 14.4823 19.2793 15.1123C19.3507 15.1949 19.3912 15.2862 19.3994 15.3828C19.4075 15.4784 19.3842 15.5719 19.3418 15.6592C19.2583 15.8308 19.094 15.9954 18.9062 16.1436C18.5283 16.4417 18.011 16.7054 17.6865 16.8574C17.4574 16.9648 17.1972 16.9019 17.0205 16.7383C16.64 16.386 16.2325 16.1196 15.7988 15.9365L15.7979 15.9355C15.2717 15.7017 14.6972 15.584 14.0742 15.584C13.4728 15.584 12.9267 15.6781 12.4355 15.8652C11.9437 16.0526 11.5171 16.3217 11.1553 16.6719C10.8062 17.0213 10.5309 17.4343 10.332 17.9131L10.333 17.9141C10.1461 18.3929 10.0518 18.9265 10.0518 19.5156C10.0518 20.0917 10.1456 20.619 10.332 21.0977L10.4111 21.2754C10.6021 21.6829 10.8512 22.045 11.1582 22.3623H11.1572C11.519 22.7119 11.9391 22.9801 12.418 23.167L12.6045 23.2324C13.045 23.3758 13.5227 23.4482 14.0381 23.4482C14.6029 23.4482 15.1496 23.3598 15.6787 23.1836L15.8799 23.1074C15.9895 23.0627 16.0977 23.0112 16.2061 22.9561V20.6504C16.2061 19.8596 16.847 19.2179 17.6377 19.2178C18.4286 19.2178 19.0703 19.8595 19.0703 20.6504V24.4795L19.0303 24.5098C18.3359 25.0336 17.5265 25.4339 16.6045 25.7129L16.6055 25.7139C15.6964 25.9926 14.7864 26.1318 13.876 26.1318C12.8694 26.1318 11.9392 25.9748 11.0869 25.6582L11.0859 25.6572C10.3515 25.3698 9.69518 24.9794 9.11816 24.4863L8.875 24.2686C8.25338 23.6713 7.76527 22.9698 7.41211 22.166V22.165C7.07036 21.3595 6.90039 20.4757 6.90039 19.5156C6.90043 18.5558 7.07044 17.6726 7.41211 16.8672V16.8662L7.55176 16.5693C7.89163 15.8882 8.33896 15.2863 8.89355 14.7637L9.13672 14.5459C9.71524 14.0541 10.3771 13.6694 11.1221 13.3926L11.4453 13.2773C12.2098 13.0256 13.0381 12.9004 13.9297 12.9004ZM27.7266 12.9004C28.8296 12.9004 29.827 13.0937 30.7168 13.4834H30.7178C31.2264 13.6965 31.689 13.9689 32.1055 14.2988C32.7021 14.7719 32.619 15.6381 32.082 16.1338C31.5022 16.669 30.624 16.5796 29.9844 16.1816C29.8459 16.0955 29.7034 16.0194 29.5576 15.9531L29.5557 15.9521C29.0421 15.707 28.481 15.584 27.8711 15.584C27.2941 15.584 26.7663 15.6782 26.2871 15.8652C25.8675 16.029 25.4979 16.2547 25.1777 16.543L25.043 16.6709C24.6935 17.0205 24.4178 17.4339 24.2188 17.9131L24.2197 17.9141C24.0329 18.3929 23.9385 18.9265 23.9385 19.5156C23.9385 20.1039 24.0325 20.6369 24.2188 21.1152L24.2969 21.293C24.4877 21.6989 24.7365 22.0549 25.043 22.3613L25.1777 22.4883C25.498 22.7767 25.8674 23.0032 26.2871 23.167C26.7663 23.354 27.2942 23.4482 27.8711 23.4482C28.4818 23.4482 29.0437 23.3303 29.5576 23.0967C29.7056 23.026 29.8498 22.9447 29.9902 22.8535C30.6242 22.4419 31.5056 22.3494 32.0869 22.8857C32.6211 23.3788 32.7034 24.2394 32.1133 24.7129C31.7997 24.9645 31.4598 25.1838 31.0938 25.3711L30.7188 25.5479C29.8284 25.9381 28.8245 26.1318 27.709 26.1318C26.7262 26.1318 25.808 25.9746 24.9561 25.6582L24.9541 25.6572C24.2196 25.3698 23.568 24.9796 23 24.4863L22.7617 24.2686C22.1401 23.6713 21.652 22.9698 21.2988 22.166V22.165C20.9571 21.3595 20.7871 20.4757 20.7871 19.5156C20.7872 18.5558 20.9572 17.6726 21.2988 16.8672V16.8662L21.4375 16.5693C21.7759 15.8885 22.2177 15.2863 22.7617 14.7637L23.0049 14.5459C23.582 14.0541 24.238 13.6695 24.9727 13.3926L25.291 13.2773C26.0437 13.0255 26.8558 12.9004 27.7266 12.9004Z" fill="white" stroke="white" stroke-width="0.2"/>
<path d="M49.2803 12.7998L49.4336 12.8076C50.1898 12.8845 50.7802 13.5233 50.7803 14.2998C50.7803 15.1281 50.1086 15.7997 49.2803 15.7998H43.4404V19.0996H48.4199C49.2482 19.0996 49.9197 19.7714 49.9199 20.5996C49.9199 21.428 49.2483 22.0996 48.4199 22.0996H43.4404V23.7598C43.4404 25.6596 41.8999 27.2002 40 27.2002V27H39.7998V12.7998H49.2803ZM54.3936 12.7998C55.3987 12.7999 56.2139 13.615 56.2139 14.6201V25.3799C56.2139 26.385 55.3987 27.2001 54.3936 27.2002C53.3884 27.2002 52.5732 26.385 52.5732 25.3799V14.6201C52.5732 13.615 53.3884 12.7998 54.3936 12.7998ZM68.6357 12.7998C69.4752 12.7998 70.1562 13.4808 70.1562 14.3203C70.1561 15.1596 69.4751 15.8398 68.6357 15.8398H65.6758V25.3799C65.6758 26.385 64.8606 27.2002 63.8555 27.2002C62.8505 27.1999 62.0361 26.3849 62.0361 25.3799V15.7998H59.1396C58.3114 15.7996 57.6396 15.1281 57.6396 14.2998C57.6398 13.4716 58.3115 12.8 59.1396 12.7998H68.6357Z" fill="#22C55E" stroke="#22C55E" stroke-width="0.4"/>
</svg>
